<svg width="358" height="81" viewBox="0 0 358 81" fill="none" xmlns="http://www.w3.org/2000/svg">
<g clip-path="url(#clip0)">
<rect width="358" height="81" fill="white"/>
<path d="M357.504 46.368C357.504 46.56 357.408 47.904 357.216 50.4H318.144C318.848 53.6 320.512 56.128 323.136 57.984C325.76 59.84 329.024 60.768 332.928 60.768C335.616 60.768 337.984 60.384 340.032 59.616C342.144 58.784 344.096 57.504 345.888 55.776L353.856 64.416C348.992 69.984 341.888 72.768 332.544 72.768C326.72 72.768 321.568 71.648 317.088 69.408C312.608 67.104 309.152 63.936 306.72 59.904C304.288 55.872 303.072 51.296 303.072 46.176C303.072 41.12 304.256 36.576 306.624 32.544C309.056 28.448 312.352 25.28 316.512 23.04C320.736 20.736 325.44 19.584 330.624 19.584C335.68 19.584 340.256 20.672 344.352 22.848C348.448 25.024 351.648 28.16 353.952 32.256C356.32 36.288 357.504 40.992 357.504 46.368ZM330.72 30.912C327.328 30.912 324.48 31.872 322.176 33.792C319.872 35.712 318.464 38.336 317.952 41.664H343.392C342.88 38.4 341.472 35.808 339.168 33.888C336.864 31.904 334.048 30.912 330.72 30.912Z" fill="#012E52"/>
<path d="M308.176 20.352L286.384 72H270.928L249.232 20.352H264.688L278.992 55.488L293.776 20.352H308.176Z" fill="#012E52"/>
<path d="M254.504 46.368C254.504 46.56 254.408 47.904 254.216 50.4H215.144C215.848 53.6 217.512 56.128 220.136 57.984C222.76 59.84 226.024 60.768 229.928 60.768C232.616 60.768 234.984 60.384 237.032 59.616C239.144 58.784 241.096 57.504 242.888 55.776L250.856 64.416C245.992 69.984 238.888 72.768 229.544 72.768C223.72 72.768 218.568 71.648 214.088 69.408C209.608 67.104 206.152 63.936 203.72 59.904C201.288 55.872 200.072 51.296 200.072 46.176C200.072 41.12 201.256 36.576 203.624 32.544C206.056 28.448 209.352 25.28 213.512 23.04C217.736 20.736 222.44 19.584 227.624 19.584C232.68 19.584 237.256 20.672 241.352 22.848C245.448 25.024 248.648 28.16 250.952 32.256C253.32 36.288 254.504 40.992 254.504 46.368ZM227.72 30.912C224.328 30.912 221.48 31.872 219.176 33.792C216.872 35.712 215.464 38.336 214.952 41.664H240.392C239.88 38.4 238.472 35.808 236.168 33.888C233.864 31.904 231.048 30.912 227.72 30.912Z" fill="#012E52"/>
<path d="M205.176 21.352L183.384 73H167.928L146.232 21.352H161.688L175.992 56.488L190.776 21.352H205.176Z" fill="#012E52"/>
<path d="M123.288 72.768C119 72.768 114.808 72.256 110.712 71.232C106.616 70.144 103.352 68.8 100.92 67.2L105.912 56.448C108.216 57.92 111 59.136 114.264 60.096C117.528 60.992 120.728 61.44 123.864 61.44C130.2 61.44 133.368 59.872 133.368 56.736C133.368 55.264 132.504 54.208 130.776 53.568C129.048 52.928 126.392 52.384 122.808 51.936C118.584 51.296 115.096 50.56 112.344 49.728C109.592 48.896 107.192 47.424 105.144 45.312C103.16 43.2 102.168 40.192 102.168 36.288C102.168 33.024 103.096 30.144 104.952 27.648C106.872 25.088 109.624 23.104 113.208 21.696C116.856 20.288 121.144 19.584 126.072 19.584C129.72 19.584 133.336 20 136.92 20.832C140.568 21.6 143.576 22.688 145.944 24.096L140.952 34.752C136.408 32.192 131.448 30.912 126.072 30.912C122.872 30.912 120.472 31.36 118.872 32.256C117.272 33.152 116.472 34.304 116.472 35.712C116.472 37.312 117.336 38.432 119.064 39.072C120.792 39.712 123.544 40.32 127.32 40.896C131.544 41.6 135 42.368 137.688 43.2C140.376 43.968 142.712 45.408 144.696 47.52C146.68 49.632 147.672 52.576 147.672 56.352C147.672 59.552 146.712 62.4 144.792 64.896C142.872 67.392 140.056 69.344 136.344 70.752C132.696 72.096 128.344 72.768 123.288 72.768Z" fill="#012E52"/>
<g clip-path="url(#clip1)">
<path d="M89.9569 0.572109L1.07275 34.1082L23.5993 44.1391L30.4905 75.1185L46.0999 61.1917L69.8267 79.0632L89.9569 0.572109ZM32.78 48.4518L30.4905 75.1185L28.7076 43.5398L89.9569 0.572109L32.78 48.4518Z" fill="#85D3FD"/>
<path d="M89.9569 0.572154L31.1204 48.9137L30.4905 75.1186L46.0999 61.1917L69.8267 79.0633L89.9569 0.572154Z" fill="#22B8F9"/>
<path d="M31.1204 48.9137L30.4905 75.1186L23.5993 44.139L89.9569 0.572154L31.1204 48.9137Z" fill="#0082FF"/>
<path d="M46.0999 61.1917L31.1203 48.9136L30.4905 75.1185L46.0999 61.1917Z" fill="#00317E"/>
<path d="M52.0653 32.3022L69.8357 79.0285L89.957 0.571947L52.0653 32.3022Z" fill="#85D3FD"/>
<path d="M50.5197 28.2381L89.957 0.572015L46.2671 17.0562L50.5197 28.2381Z" fill="#22B8F9"/>
<path d="M51.8922 31.8469L69.8267 79.0631L89.957 0.571947L51.8922 31.8469Z" fill="#0082FF"/>
<path d="M49.9798 26.819L51.8921 31.8472L89.9569 0.572191L49.9798 26.819Z" fill="#00317E"/>
</g>
</g>
<defs>
<clipPath id="clip0">
<rect width="358" height="81" fill="white"/>
</clipPath>
<clipPath id="clip1">
<rect width="95" height="95" fill="white" transform="translate(-4 20.7695) rotate(-20.8221)"/>
</clipPath>
</defs>
</svg>
